<svg xmlns="http://www.w3.org/2000/svg" width="207" height="68" fill="none" class=""><path fill="#FFFFFFAA" stroke="#FFFFFFAA" stroke-miterlimit="10" stroke-width="2.61" d="M7.34 65.92l-2.93-.4C2.72 62.95 2 59.63 2 55.23c0-5.88 2.31-13.3 6.4-18l2.02.44c1.3-1.42 2.89-2.55 4.24-2.79 1.59-.3 3.27.59 4.57.98.53 1.8.77 3.71.77 5.62.14 10.32-6.16 20.93-12.66 24.45zM16.87 42a18.66 18.66 0 00-.62-4.4c-.2 0-.39.05-.63.05-1.88.34-3.37 1.9-5.49 6.06L8.45 42.6A25.9 25.9 0 005.5 54.28c0 3.47.48 6.5 1.54 8.7 5.35-3.71 9.92-12.9 9.82-20.97zm24.88-8.99a244.67 244.67 0 00-5.87 27l-3.27-.25c.43-3.18 1.25-7.53 2.31-12.28a141.76 141.76 0 01-9.91 14.67l-3.76-.49c.68-5.33 2.89-17.3 5.1-27.72l3.52-.2c-2.07 8.76-3.8 18.78-4.72 24.01A173.6 173.6 0 0036.8 39.27c.62-2.54 1.3-4.94 1.87-6.8l3.08.54zm15.79-1.41c-2.07.53-3.85.92-5.44 1.31-1.58 8.61-2.93 15.75-4.57 24.8l-3.37.19c1.64-8.8 3.04-15.84 4.58-24.2-1.74.44-3.42.83-5.4 1.27l.39-3.33c4.33-1.17 9.58-2.44 14.1-3.42l-.29 3.37zm14.08 23.06l-2.93-.39c-1.69-2.59-2.41-5.91-2.41-10.31 0-5.87 2.3-13.3 6.4-18l2.02.44c1.3-1.42 2.89-2.54 4.24-2.79 1.59-.29 3.27.6 4.57 1.03a22 22 0 01.77 5.62c.14 10.22-6.16 20.88-12.66 24.4zm9.53-23.9a19.45 19.45 0 00-.62-4.46c-.2 0-.44.05-.63.1-1.88.34-3.37 1.9-5.49 6.06l-1.68-1.12a25.6 25.6 0 00-2.94 11.69c0 3.47.48 6.5 1.54 8.75 5.34-3.77 9.97-12.96 9.82-21.03zm23.39-7.34c-3.18.83-6.02 1.42-8.71 2.05-.58 2.55-1.35 6.02-2.21 9.78 2.4-.63 4.95-1.32 7.89-2.15l-.58 3.43c-3.27.88-5.87 1.66-8.08 2.2-1.02 4.45-1.98 8.8-2.75 11.98l-3.22-.25c.77-3.57 1.59-7.24 2.4-10.85-1.25.29-2.4.48-3.51.73l.58-3.33c1.25-.24 2.45-.58 3.75-.88l2.22-9.87c-1.26.29-2.55.58-3.8.88l.38-3.33a378.37 378.37 0 0115.88-3.76c-.05.05-.24 3.37-.24 3.37zm20.41 3.08c-1.06-4.6-2.6-6.89-5.63-6.64-1.59 3.71-.43 6.25 1.25 10.5 2.74 6.76 4.57 9.84-.1 15.65-3.65 1.37-7.98 1.23-10.2-6.06l2.36-2.44c1.25 3.27 3.6 6.7 6.4 6.1 2.17-3.02.48-6.35-1.83-11.87-1.92-4.6-2.55-7.14-1.15-10.76l3.13-3.86c5.14-1.03 7.4 1.66 8.61 7.43l-2.84 1.95zm18.25-9.97c-2.08.53-3.86.92-5.45 1.32-1.59 8.65-2.93 15.74-4.57 24.79l-3.37.2c1.64-8.81 3.03-15.85 4.57-24.21-1.73.44-3.41.83-5.39 1.27l.39-3.33c4.33-1.17 9.58-2.44 14.1-3.42l-.29 3.38zm4.51 24.54l-2.93-.4c-1.69-2.58-2.41-5.9-2.41-10.3 0-5.88 2.31-13.3 6.4-18l2.02.44c1.3-1.42 2.89-2.54 4.24-2.79 1.59-.3 3.27.59 4.57 1.03.53 1.8.77 3.71.77 5.62.1 10.22-6.2 20.88-12.66 24.4zm9.53-23.96a19.5 19.5 0 00-.62-4.45c-.2 0-.44.05-.63.1-1.88.34-3.37 1.9-5.49 6.06l-1.68-1.12a25.9 25.9 0 00-2.94 11.68c0 3.48.49 6.5 1.54 8.7 5.35-3.7 9.92-12.9 9.82-20.97zm8.52 11.35c0 2.74.44 5.18 1.35 6.9 2.12-1.43 4.67-4.8 6.98-10.76l2.4 1.07c-2.69 7.24-5.87 10.66-8.9 12.37l-3.27-.3c-1.35-2.24-2.02-5.32-2.02-8.8 0-7.03 2.79-15.54 8.52-20.72l3.8-.69c2.3 1.03 3.6 4.99 3.51 10.42l-3.08.97c-.14-4.35-.72-6.94-2.3-9.04-4.77 4.74-7.03 12.47-6.99 18.58zM204.5 3.8l-9.87 10.57c1.11 7 2.31 12.67 3.76 19.02l-3.08 1.57a280.84 280.84 0 01-3.42-17.66l-2.45 2.64c-1.06 4.11-2.22 8.37-3.28 13.2l-3.27-.04c2.07-8.27 4.38-15.94 5.92-25.09-3.51 2.74-5.82 6.26-7.9 9.3l-2.06-1.91c1.88-3.13 6.83-9.05 10.54-11l3.27.48c-.58 3.67-1.25 7-1.97 10.18L202.48 2l2.02 1.8z"></path></svg>